<svg width="40" height="44" viewBox="0 0 40 44" fill="none" xmlns="http://www.w3.org/2000/svg">
<path d="M28.3333 6.41667C28.3333 6.17356 28.2455 5.9404 28.0893 5.76849C27.933 5.59658 27.721 5.50001 27.5 5.50001H23.3333C21.2352 5.38504 19.181 6.18822 17.6195 7.73407C16.0581 9.27991 15.1163 11.4427 15 13.75V18.7H10.8333C10.6123 18.7 10.4004 18.7966 10.2441 18.9685C10.0878 19.1404 10 19.3736 10 19.6167V24.3833C10 24.6265 10.0878 24.8596 10.2441 25.0315C10.4004 25.2034 10.6123 25.3 10.8333 25.3H15V37.5833C15 37.8265 15.0878 38.0596 15.2441 38.2315C15.4004 38.4034 15.6123 38.5 15.8333 38.5H20.8333C21.0543 38.5 21.2663 38.4034 21.4226 38.2315C21.5789 38.0596 21.6667 37.8265 21.6667 37.5833V25.3H26.0333C26.2186 25.3029 26.3996 25.2378 26.5475 25.115C26.6954 24.9921 26.8018 24.8185 26.85 24.6217L28.05 19.855C28.0832 19.7196 28.0876 19.5776 28.063 19.4399C28.0384 19.3023 27.9855 19.1727 27.9082 19.0611C27.8309 18.9495 27.7314 18.859 27.6173 18.7964C27.5032 18.7338 27.3775 18.7008 27.25 18.7H21.6667V13.75C21.7081 13.2962 21.9019 12.8757 22.21 12.5706C22.5182 12.2655 22.9187 12.0977 23.3333 12.1H27.5C27.721 12.1 27.933 12.0034 28.0893 11.8315C28.2455 11.6596 28.3333 11.4265 28.3333 11.1833V6.41667Z" fill="#1F319D"/>
</svg>
